<svg xmlns="http://www.w3.org/2000/svg" width="1200" height="720" viewBox="0 0 1200 720">
<rect width="100%" height="100%" fill="#f7f4ef"/>
<text x="600.0" y="28" text-anchor="middle" font-family="Georgia, serif" font-size="24" fill="#171717">Omni Model Score Trend</text>
<text x="600.0" y="48" text-anchor="middle" font-family="Georgia, serif" font-size="13" fill="#5f5a55">All evaluated checkpoints sorted by training time. Colored points are gate score rate; brown squares are promotion score rate.</text>
<line x1="80" y1="60" x2="80" y2="640" stroke="#6c6761" stroke-width="1.5"/>
<line x1="80" y1="640" x2="900" y2="640" stroke="#6c6761" stroke-width="1.5"/>
<line x1="80" y1="640.0" x2="900" y2="640.0" stroke="#ddd7cf" stroke-width="1"/>
<text x="70" y="644.0" text-anchor="end" font-family="Georgia, serif" font-size="12" fill="#5f5a55">0.00</text>
<line x1="80" y1="495.0" x2="900" y2="495.0" stroke="#ddd7cf" stroke-width="1"/>
<text x="70" y="499.0" text-anchor="end" font-family="Georgia, serif" font-size="12" fill="#5f5a55">0.25</text>
<line x1="80" y1="350.0" x2="900" y2="350.0" stroke="#ddd7cf" stroke-width="1"/>
<text x="70" y="354.0" text-anchor="end" font-family="Georgia, serif" font-size="12" fill="#5f5a55">0.50</text>
<line x1="80" y1="205.0" x2="900" y2="205.0" stroke="#ddd7cf" stroke-width="1"/>
<text x="70" y="209.0" text-anchor="end" font-family="Georgia, serif" font-size="12" fill="#5f5a55">0.75</text>
<line x1="80" y1="60.0" x2="900" y2="60.0" stroke="#ddd7cf" stroke-width="1"/>
<text x="70" y="64.0" text-anchor="end" font-family="Georgia, serif" font-size="12" fill="#5f5a55">1.00</text>
<line x1="80.0" y1="640" x2="80.0" y2="645" stroke="#6c6761" stroke-width="1"/>
<text x="80.0" y="664" text-anchor="middle" font-family="Georgia, serif" font-size="11" fill="#5f5a55">1</text>
<line x1="148.3" y1="640" x2="148.3" y2="645" stroke="#6c6761" stroke-width="1"/>
<text x="148.3" y="664" text-anchor="middle" font-family="Georgia, serif" font-size="11" fill="#5f5a55">5</text>
<line x1="216.7" y1="640" x2="216.7" y2="645" stroke="#6c6761" stroke-width="1"/>
<text x="216.7" y="664" text-anchor="middle" font-family="Georgia, serif" font-size="11" fill="#5f5a55">9</text>
<line x1="285.0" y1="640" x2="285.0" y2="645" stroke="#6c6761" stroke-width="1"/>
<text x="285.0" y="664" text-anchor="middle" font-family="Georgia, serif" font-size="11" fill="#5f5a55">13</text>
<line x1="353.3" y1="640" x2="353.3" y2="645" stroke="#6c6761" stroke-width="1"/>
<text x="353.3" y="664" text-anchor="middle" font-family="Georgia, serif" font-size="11" fill="#5f5a55">17</text>
<line x1="421.7" y1="640" x2="421.7" y2="645" stroke="#6c6761" stroke-width="1"/>
<text x="421.7" y="664" text-anchor="middle" font-family="Georgia, serif" font-size="11" fill="#5f5a55">21</text>
<line x1="490.0" y1="640" x2="490.0" y2="645" stroke="#6c6761" stroke-width="1"/>
<text x="490.0" y="664" text-anchor="middle" font-family="Georgia, serif" font-size="11" fill="#5f5a55">25</text>
<line x1="558.3" y1="640" x2="558.3" y2="645" stroke="#6c6761" stroke-width="1"/>
<text x="558.3" y="664" text-anchor="middle" font-family="Georgia, serif" font-size="11" fill="#5f5a55">29</text>
<line x1="626.7" y1="640" x2="626.7" y2="645" stroke="#6c6761" stroke-width="1"/>
<text x="626.7" y="664" text-anchor="middle" font-family="Georgia, serif" font-size="11" fill="#5f5a55">33</text>
<line x1="695.0" y1="640" x2="695.0" y2="645" stroke="#6c6761" stroke-width="1"/>
<text x="695.0" y="664" text-anchor="middle" font-family="Georgia, serif" font-size="11" fill="#5f5a55">37</text>
<line x1="763.3" y1="640" x2="763.3" y2="645" stroke="#6c6761" stroke-width="1"/>
<text x="763.3" y="664" text-anchor="middle" font-family="Georgia, serif" font-size="11" fill="#5f5a55">41</text>
<line x1="831.7" y1="640" x2="831.7" y2="645" stroke="#6c6761" stroke-width="1"/>
<text x="831.7" y="664" text-anchor="middle" font-family="Georgia, serif" font-size="11" fill="#5f5a55">45</text>
<line x1="900.0" y1="640" x2="900.0" y2="645" stroke="#6c6761" stroke-width="1"/>
<text x="900.0" y="664" text-anchor="middle" font-family="Georgia, serif" font-size="11" fill="#5f5a55">49</text>
<polyline points="370.4,205.0 387.5,205.0 404.6,205.0 421.7,205.0 438.8,205.0 455.8,229.2 472.9,229.2 490.0,205.0 507.1,205.0 524.2,205.0 541.2,205.0 558.3,229.2 575.4,205.0 592.5,205.0 609.6,205.0 626.7,205.0 643.8,205.0 660.8,205.0 677.9,229.2 695.0,229.2" fill="none" stroke="#1b5c75" stroke-width="2.2" stroke-linecap="round" stroke-linejoin="round" opacity="0.85"/>
<polyline points="985.4,205.0 1002.5,205.0 1019.6,205.0 1036.7,229.2 1053.8,205.0" fill="none" stroke="#8a5a44" stroke-width="2.2" stroke-linecap="round" stroke-linejoin="round" opacity="0.85"/>
<polyline points="900.0,205.0 917.1,205.0 934.2,205.0" fill="none" stroke="#486b2e" stroke-width="2.2" stroke-linecap="round" stroke-linejoin="round" opacity="0.85"/>
<polyline points="746.2,205.0 780.4,205.0" fill="none" stroke="#8e6c8a" stroke-width="2.2" stroke-linecap="round" stroke-linejoin="round" opacity="0.85"/>
<polyline points="336.2,253.3 353.3,205.0" fill="none" stroke="#345995" stroke-width="2.2" stroke-linecap="round" stroke-linejoin="round" opacity="0.85"/>
<polyline points="80.0,253.3 97.1,229.2 114.2,221.1 131.2,245.3 148.3,246.9 165.4,237.2 182.5,246.9 199.6,256.6 216.7,234.0 233.8,224.3 250.8,224.3 267.9,214.7 285.0,205.0 302.1,205.0 319.2,209.8 336.2,214.7 353.3,214.7 370.4,214.7 387.5,214.7 404.6,209.8 421.7,209.8 438.8,209.8 455.8,209.8 472.9,209.8 490.0,209.8 507.1,205.0 524.2,205.0 541.2,209.8 558.3,214.7 575.4,219.5 592.5,219.5 609.6,219.5 626.7,224.3 643.8,219.5 660.8,214.7 677.9,214.7 695.0,214.7 712.1,205.0 729.2,205.0 746.2,205.0 763.3,205.0 780.4,205.0 797.5,205.0 814.6,205.0 831.7,205.0 848.8,205.0 865.8,205.0 882.9,209.8 900.0,209.8" fill="none" stroke="#171717" stroke-width="3.2" stroke-linecap="round" stroke-linejoin="round"/>
<circle cx="182.5" cy="253.3" r="4.8" fill="#c26d2d" stroke="#f7f4ef" stroke-width="1.5"/>
<circle cx="199.6" cy="205.0" r="4.8" fill="#7a6651" stroke="#f7f4ef" stroke-width="1.5"/>
<circle cx="216.7" cy="205.0" r="4.8" fill="#3d405b" stroke="#f7f4ef" stroke-width="1.5"/>
<circle cx="267.9" cy="317.8" r="4.8" fill="#345995" stroke="#f7f4ef" stroke-width="1.5"/>
<circle cx="285.0" cy="253.3" r="4.8" fill="#486b2e" stroke="#f7f4ef" stroke-width="1.5"/>
<circle cx="302.1" cy="205.0" r="4.8" fill="#8e6c8a" stroke="#f7f4ef" stroke-width="1.5"/>
<circle cx="319.2" cy="253.3" r="4.8" fill="#c26d2d" stroke="#f7f4ef" stroke-width="1.5"/>
<circle cx="336.2" cy="253.3" r="4.8" fill="#345995" stroke="#f7f4ef" stroke-width="1.5"/>
<circle cx="353.3" cy="205.0" r="4.8" fill="#345995" stroke="#f7f4ef" stroke-width="1.5"/>
<rect x="350.3" y="202.0" width="6" height="6" fill="#8a5a44" stroke="#f7f4ef" stroke-width="1"/>
<circle cx="370.4" cy="205.0" r="4.8" fill="#1b5c75" stroke="#f7f4ef" stroke-width="1.5"/>
<circle cx="387.5" cy="205.0" r="4.8" fill="#1b5c75" stroke="#f7f4ef" stroke-width="1.5"/>
<rect x="384.5" y="202.0" width="6" height="6" fill="#8a5a44" stroke="#f7f4ef" stroke-width="1"/>
<circle cx="404.6" cy="205.0" r="4.8" fill="#1b5c75" stroke="#f7f4ef" stroke-width="1.5"/>
<rect x="401.6" y="202.0" width="6" height="6" fill="#8a5a44" stroke="#f7f4ef" stroke-width="1"/>
<circle cx="421.7" cy="205.0" r="4.8" fill="#1b5c75" stroke="#f7f4ef" stroke-width="1.5"/>
<rect x="418.7" y="202.0" width="6" height="6" fill="#8a5a44" stroke="#f7f4ef" stroke-width="1"/>
<circle cx="438.8" cy="205.0" r="4.8" fill="#1b5c75" stroke="#f7f4ef" stroke-width="1.5"/>
<rect x="435.8" y="202.0" width="6" height="6" fill="#8a5a44" stroke="#f7f4ef" stroke-width="1"/>
<circle cx="455.8" cy="229.2" r="4.8" fill="#1b5c75" stroke="#f7f4ef" stroke-width="1.5"/>
<rect x="452.8" y="202.0" width="6" height="6" fill="#8a5a44" stroke="#f7f4ef" stroke-width="1"/>
<circle cx="472.9" cy="229.2" r="4.8" fill="#1b5c75" stroke="#f7f4ef" stroke-width="1.5"/>
<rect x="469.9" y="202.0" width="6" height="6" fill="#8a5a44" stroke="#f7f4ef" stroke-width="1"/>
<circle cx="490.0" cy="205.0" r="4.8" fill="#1b5c75" stroke="#f7f4ef" stroke-width="1.5"/>
<rect x="487.0" y="202.0" width="6" height="6" fill="#8a5a44" stroke="#f7f4ef" stroke-width="1"/>
<circle cx="507.1" cy="205.0" r="4.8" fill="#1b5c75" stroke="#f7f4ef" stroke-width="1.5"/>
<rect x="504.1" y="202.0" width="6" height="6" fill="#8a5a44" stroke="#f7f4ef" stroke-width="1"/>
<circle cx="524.2" cy="205.0" r="4.8" fill="#1b5c75" stroke="#f7f4ef" stroke-width="1.5"/>
<rect x="521.2" y="202.0" width="6" height="6" fill="#8a5a44" stroke="#f7f4ef" stroke-width="1"/>
<circle cx="541.2" cy="205.0" r="4.8" fill="#1b5c75" stroke="#f7f4ef" stroke-width="1.5"/>
<rect x="538.2" y="202.0" width="6" height="6" fill="#8a5a44" stroke="#f7f4ef" stroke-width="1"/>
<circle cx="558.3" cy="229.2" r="4.8" fill="#1b5c75" stroke="#f7f4ef" stroke-width="1.5"/>
<rect x="555.3" y="202.0" width="6" height="6" fill="#8a5a44" stroke="#f7f4ef" stroke-width="1"/>
<circle cx="575.4" cy="205.0" r="4.8" fill="#1b5c75" stroke="#f7f4ef" stroke-width="1.5"/>
<rect x="572.4" y="202.0" width="6" height="6" fill="#8a5a44" stroke="#f7f4ef" stroke-width="1"/>
<circle cx="592.5" cy="205.0" r="4.8" fill="#1b5c75" stroke="#f7f4ef" stroke-width="1.5"/>
<rect x="589.5" y="202.0" width="6" height="6" fill="#8a5a44" stroke="#f7f4ef" stroke-width="1"/>
<circle cx="609.6" cy="205.0" r="4.8" fill="#1b5c75" stroke="#f7f4ef" stroke-width="1.5"/>
<rect x="606.6" y="202.0" width="6" height="6" fill="#8a5a44" stroke="#f7f4ef" stroke-width="1"/>
<circle cx="626.7" cy="205.0" r="4.8" fill="#1b5c75" stroke="#f7f4ef" stroke-width="1.5"/>
<rect x="623.7" y="202.0" width="6" height="6" fill="#8a5a44" stroke="#f7f4ef" stroke-width="1"/>
<circle cx="643.8" cy="205.0" r="4.8" fill="#1b5c75" stroke="#f7f4ef" stroke-width="1.5"/>
<rect x="640.8" y="202.0" width="6" height="6" fill="#8a5a44" stroke="#f7f4ef" stroke-width="1"/>
<circle cx="660.8" cy="205.0" r="4.8" fill="#1b5c75" stroke="#f7f4ef" stroke-width="1.5"/>
<rect x="657.8" y="202.0" width="6" height="6" fill="#8a5a44" stroke="#f7f4ef" stroke-width="1"/>
<circle cx="677.9" cy="229.2" r="4.8" fill="#1b5c75" stroke="#f7f4ef" stroke-width="1.5"/>
<rect x="674.9" y="202.0" width="6" height="6" fill="#8a5a44" stroke="#f7f4ef" stroke-width="1"/>
<circle cx="695.0" cy="229.2" r="4.8" fill="#1b5c75" stroke="#f7f4ef" stroke-width="1.5"/>
<rect x="692.0" y="202.0" width="6" height="6" fill="#8a5a44" stroke="#f7f4ef" stroke-width="1"/>
<circle cx="712.1" cy="229.2" r="4.8" fill="#8a5a44" stroke="#f7f4ef" stroke-width="1.5"/>
<rect x="709.1" y="214.1" width="6" height="6" fill="#8a5a44" stroke="#f7f4ef" stroke-width="1"/>
<circle cx="729.2" cy="205.0" r="4.8" fill="#7b2d26" stroke="#f7f4ef" stroke-width="1.5"/>
<circle cx="746.2" cy="205.0" r="4.8" fill="#8e6c8a" stroke="#f7f4ef" stroke-width="1.5"/>
<rect x="743.2" y="202.0" width="6" height="6" fill="#8a5a44" stroke="#f7f4ef" stroke-width="1"/>
<circle cx="763.3" cy="253.3" r="4.8" fill="#8a5a44" stroke="#f7f4ef" stroke-width="1.5"/>
<circle cx="780.4" cy="205.0" r="4.8" fill="#8e6c8a" stroke="#f7f4ef" stroke-width="1.5"/>
<circle cx="797.5" cy="205.0" r="4.8" fill="#1b5c75" stroke="#f7f4ef" stroke-width="1.5"/>
<circle cx="831.7" cy="205.0" r="4.8" fill="#5b8c5a" stroke="#f7f4ef" stroke-width="1.5"/>
<circle cx="848.8" cy="205.0" r="4.8" fill="#3d405b" stroke="#f7f4ef" stroke-width="1.5"/>
<circle cx="865.8" cy="205.0" r="4.8" fill="#1b5c75" stroke="#f7f4ef" stroke-width="1.5"/>
<rect x="862.8" y="202.0" width="6" height="6" fill="#8a5a44" stroke="#f7f4ef" stroke-width="1"/>
<circle cx="882.9" cy="205.0" r="4.8" fill="#7b2d26" stroke="#f7f4ef" stroke-width="1.5"/>
<rect x="879.9" y="214.1" width="6" height="6" fill="#8a5a44" stroke="#f7f4ef" stroke-width="1"/>
<circle cx="900.0" cy="205.0" r="4.8" fill="#486b2e" stroke="#f7f4ef" stroke-width="1.5"/>
<rect x="897.0" y="202.0" width="6" height="6" fill="#8a5a44" stroke="#f7f4ef" stroke-width="1"/>
<circle cx="917.1" cy="205.0" r="4.8" fill="#486b2e" stroke="#f7f4ef" stroke-width="1.5"/>
<rect x="914.1" y="202.0" width="6" height="6" fill="#8a5a44" stroke="#f7f4ef" stroke-width="1"/>
<circle cx="934.2" cy="205.0" r="4.8" fill="#486b2e" stroke="#f7f4ef" stroke-width="1.5"/>
<rect x="931.2" y="202.0" width="6" height="6" fill="#8a5a44" stroke="#f7f4ef" stroke-width="1"/>
<circle cx="951.2" cy="205.0" r="4.8" fill="#7a6651" stroke="#f7f4ef" stroke-width="1.5"/>
<circle cx="968.3" cy="205.0" r="4.8" fill="#5b8c5a" stroke="#f7f4ef" stroke-width="1.5"/>
<circle cx="985.4" cy="205.0" r="4.8" fill="#8a5a44" stroke="#f7f4ef" stroke-width="1.5"/>
<rect x="982.4" y="202.0" width="6" height="6" fill="#8a5a44" stroke="#f7f4ef" stroke-width="1"/>
<circle cx="1002.5" cy="205.0" r="4.8" fill="#8a5a44" stroke="#f7f4ef" stroke-width="1.5"/>
<rect x="999.5" y="202.0" width="6" height="6" fill="#8a5a44" stroke="#f7f4ef" stroke-width="1"/>
<circle cx="1019.6" cy="205.0" r="4.8" fill="#8a5a44" stroke="#f7f4ef" stroke-width="1.5"/>
<rect x="1016.6" y="202.0" width="6" height="6" fill="#8a5a44" stroke="#f7f4ef" stroke-width="1"/>
<circle cx="1036.7" cy="229.2" r="4.8" fill="#8a5a44" stroke="#f7f4ef" stroke-width="1.5"/>
<rect x="1033.7" y="214.1" width="6" height="6" fill="#8a5a44" stroke="#f7f4ef" stroke-width="1"/>
<circle cx="1053.8" cy="205.0" r="4.8" fill="#8a5a44" stroke="#f7f4ef" stroke-width="1.5"/>
<rect x="1050.8" y="214.1" width="6" height="6" fill="#8a5a44" stroke="#f7f4ef" stroke-width="1"/>
<polyline points="353.3,205.0 387.5,205.0 404.6,205.0 421.7,205.0 438.8,205.0 455.8,205.0 472.9,205.0 490.0,205.0 507.1,205.0 524.2,205.0 541.2,205.0 558.3,205.0 575.4,205.0 592.5,205.0 609.6,205.0 626.7,205.0 643.8,205.0 660.8,205.0 677.9,205.0 695.0,205.0 712.1,217.1 746.2,205.0 865.8,205.0 882.9,217.1 900.0,205.0 917.1,205.0 934.2,205.0 985.4,205.0 1002.5,205.0 1019.6,205.0 1036.7,217.1 1053.8,217.1" fill="none" stroke="#8a5a44" stroke-width="1.8" stroke-dasharray="7 5" opacity="0.85"/>
<text x="920" y="70" font-family="Georgia, serif" font-size="15" fill="#171717">Families</text>
<line x1="920" y1="88" x2="938" y2="88" stroke="#1b5c75" stroke-width="3"/>
<circle cx="929" cy="88" r="4.5" fill="#1b5c75" stroke="#f7f4ef" stroke-width="1"/>
<text x="948" y="92" font-family="Georgia, serif" font-size="12" fill="#38332f">alphazero_cycle_20_fast</text>
<line x1="920" y1="106" x2="938" y2="106" stroke="#8a5a44" stroke-width="3"/>
<circle cx="929" cy="106" r="4.5" fill="#8a5a44" stroke="#f7f4ef" stroke-width="1"/>
<text x="948" y="110" font-family="Georgia, serif" font-size="12" fill="#38332f">alphazero_cycle_4h_strongest</text>
<line x1="920" y1="124" x2="938" y2="124" stroke="#486b2e" stroke-width="3"/>
<circle cx="929" cy="124" r="4.5" fill="#486b2e" stroke="#f7f4ef" stroke-width="1"/>
<text x="948" y="128" font-family="Georgia, serif" font-size="12" fill="#38332f">alphazero_cycle_16h_best</text>
<line x1="920" y1="142" x2="938" y2="142" stroke="#8e6c8a" stroke-width="3"/>
<circle cx="929" cy="142" r="4.5" fill="#8e6c8a" stroke="#f7f4ef" stroke-width="1"/>
<text x="948" y="146" font-family="Georgia, serif" font-size="12" fill="#38332f">alphazero_cycle_conversion_fast</text>
<line x1="920" y1="160" x2="938" y2="160" stroke="#345995" stroke-width="3"/>
<circle cx="929" cy="160" r="4.5" fill="#345995" stroke="#f7f4ef" stroke-width="1"/>
<text x="948" y="164" font-family="Georgia, serif" font-size="12" fill="#38332f">alphazero_cycle_fast</text>
<line x1="920" y1="178" x2="938" y2="178" stroke="#c26d2d" stroke-width="3"/>
<circle cx="929" cy="178" r="4.5" fill="#c26d2d" stroke="#f7f4ef" stroke-width="1"/>
<text x="948" y="182" font-family="Georgia, serif" font-size="12" fill="#38332f">bootstrap_alphazero_fast</text>
<line x1="920" y1="196" x2="938" y2="196" stroke="#7a6651" stroke-width="3"/>
<circle cx="929" cy="196" r="4.5" fill="#7a6651" stroke="#f7f4ef" stroke-width="1"/>
<text x="948" y="200" font-family="Georgia, serif" font-size="12" fill="#38332f">bootstrap_convergence_fast</text>
<line x1="920" y1="214" x2="938" y2="214" stroke="#5b8c5a" stroke-width="3"/>
<circle cx="929" cy="214" r="4.5" fill="#5b8c5a" stroke="#f7f4ef" stroke-width="1"/>
<text x="948" y="218" font-family="Georgia, serif" font-size="12" fill="#38332f">bootstrap_conversion_fast_default_batch</text>
<line x1="920" y1="232" x2="938" y2="232" stroke="#3d405b" stroke-width="3"/>
<circle cx="929" cy="232" r="4.5" fill="#3d405b" stroke="#f7f4ef" stroke-width="1"/>
<text x="948" y="236" font-family="Georgia, serif" font-size="12" fill="#38332f">bootstrap_conversion_fast_lit</text>
<line x1="920" y1="250" x2="938" y2="250" stroke="#7b2d26" stroke-width="3"/>
<circle cx="929" cy="250" r="4.5" fill="#7b2d26" stroke="#f7f4ef" stroke-width="1"/>
<text x="948" y="254" font-family="Georgia, serif" font-size="12" fill="#38332f">bootstrap_conversion_fast_smoke</text>
<line x1="920" y1="278" x2="938" y2="278" stroke="#171717" stroke-width="3"/>
<text x="948" y="282" font-family="Georgia, serif" font-size="12" fill="#38332f">5-model rolling average</text>
<rect x="926" y="290" width="8" height="8" fill="#8a5a44" stroke="#f7f4ef" stroke-width="1"/>
<text x="948" y="300" font-family="Georgia, serif" font-size="12" fill="#38332f">Promotion score rate</text>
</svg>