<svg xmlns="http://www.w3.org/2000/svg" width="960" height="480" viewBox="0 0 960 480">
<rect width="100%" height="100%" fill="#f8f7f4"/>
<text x="480.0" y="28" text-anchor="middle" font-family="Georgia, serif" font-size="22" fill="#171717">Promotion Margin</text>
<text x="20" y="225.0" transform="rotate(-90 20 225.0)" text-anchor="middle" font-family="Georgia, serif" font-size="14" fill="#5f5a55">Score delta</text>
<line x1="90" y1="56" x2="90" y2="394" stroke="#6c6761" stroke-width="1.5"/>
<line x1="90" y1="394" x2="936" y2="394" stroke="#6c6761" stroke-width="1.5"/>
<line x1="90" y1="56.0" x2="936" y2="56.0" stroke="#ddd7cf" stroke-width="1"/>
<text x="80" y="61.0" text-anchor="end" font-family="Georgia, serif" font-size="12" fill="#5f5a55">6.0</text>
<line x1="90" y1="123.6" x2="936" y2="123.6" stroke="#ddd7cf" stroke-width="1"/>
<text x="80" y="128.6" text-anchor="end" font-family="Georgia, serif" font-size="12" fill="#5f5a55">4.8</text>
<line x1="90" y1="191.2" x2="936" y2="191.2" stroke="#ddd7cf" stroke-width="1"/>
<text x="80" y="196.2" text-anchor="end" font-family="Georgia, serif" font-size="12" fill="#5f5a55">3.6</text>
<line x1="90" y1="258.8" x2="936" y2="258.8" stroke="#ddd7cf" stroke-width="1"/>
<text x="80" y="263.8" text-anchor="end" font-family="Georgia, serif" font-size="12" fill="#5f5a55">2.4</text>
<line x1="90" y1="326.4" x2="936" y2="326.4" stroke="#ddd7cf" stroke-width="1"/>
<text x="80" y="331.4" text-anchor="end" font-family="Georgia, serif" font-size="12" fill="#5f5a55">1.2</text>
<line x1="90" y1="394.0" x2="936" y2="394.0" stroke="#ddd7cf" stroke-width="1"/>
<text x="80" y="399.0" text-anchor="end" font-family="Georgia, serif" font-size="12" fill="#5f5a55">0.0</text>
<rect x="123.8" y="56.0" width="101.5" height="338.0" rx="8" fill="#1b5c75"/>
<text x="174.6" y="48.0" text-anchor="middle" font-family="Georgia, serif" font-size="12" fill="#171717">6.0</text>
<text x="174.6" y="418" text-anchor="middle" font-family="Georgia, serif" font-size="12" fill="#5f5a55">01</text>
<rect x="293.0" y="56.0" width="101.5" height="338.0" rx="8" fill="#1b5c75"/>
<text x="343.8" y="48.0" text-anchor="middle" font-family="Georgia, serif" font-size="12" fill="#171717">6.0</text>
<text x="343.8" y="418" text-anchor="middle" font-family="Georgia, serif" font-size="12" fill="#5f5a55">02</text>
<rect x="462.2" y="56.0" width="101.5" height="338.0" rx="8" fill="#1b5c75"/>
<text x="513.0" y="48.0" text-anchor="middle" font-family="Georgia, serif" font-size="12" fill="#171717">6.0</text>
<text x="513.0" y="418" text-anchor="middle" font-family="Georgia, serif" font-size="12" fill="#5f5a55">03</text>
<rect x="631.4" y="84.2" width="101.5" height="309.8" rx="8" fill="#1b5c75"/>
<text x="682.2" y="76.2" text-anchor="middle" font-family="Georgia, serif" font-size="12" fill="#171717">5.5</text>
<text x="682.2" y="418" text-anchor="middle" font-family="Georgia, serif" font-size="12" fill="#5f5a55">04</text>
<rect x="800.6" y="56.0" width="101.5" height="338.0" rx="8" fill="#1b5c75"/>
<text x="851.4" y="48.0" text-anchor="middle" font-family="Georgia, serif" font-size="12" fill="#171717">6.0</text>
<text x="851.4" y="418" text-anchor="middle" font-family="Georgia, serif" font-size="12" fill="#5f5a55">05</text>
</svg>
