<svg xmlns="http://www.w3.org/2000/svg" width="960" height="480" viewBox="0 0 960 480">
<rect width="100%" height="100%" fill="#f8f7f4"/>
<text x="480.0" y="28" text-anchor="middle" font-family="Georgia, serif" font-size="22" fill="#171717">Replay Buffer Growth</text>
<text x="20" y="225.0" transform="rotate(-90 20 225.0)" text-anchor="middle" font-family="Georgia, serif" font-size="14" fill="#5f5a55">Examples</text>
<line x1="90" y1="56" x2="90" y2="394" stroke="#6c6761" stroke-width="1.5"/>
<line x1="90" y1="394" x2="936" y2="394" stroke="#6c6761" stroke-width="1.5"/>
<line x1="90" y1="56.0" x2="936" y2="56.0" stroke="#ddd7cf" stroke-width="1"/>
<text x="80" y="61.0" text-anchor="end" font-family="Georgia, serif" font-size="12" fill="#5f5a55">25656.00</text>
<line x1="90" y1="123.6" x2="936" y2="123.6" stroke="#ddd7cf" stroke-width="1"/>
<text x="80" y="128.6" text-anchor="end" font-family="Georgia, serif" font-size="12" fill="#5f5a55">20524.80</text>
<line x1="90" y1="191.2" x2="936" y2="191.2" stroke="#ddd7cf" stroke-width="1"/>
<text x="80" y="196.2" text-anchor="end" font-family="Georgia, serif" font-size="12" fill="#5f5a55">15393.60</text>
<line x1="90" y1="258.8" x2="936" y2="258.8" stroke="#ddd7cf" stroke-width="1"/>
<text x="80" y="263.8" text-anchor="end" font-family="Georgia, serif" font-size="12" fill="#5f5a55">10262.40</text>
<line x1="90" y1="326.4" x2="936" y2="326.4" stroke="#ddd7cf" stroke-width="1"/>
<text x="80" y="331.4" text-anchor="end" font-family="Georgia, serif" font-size="12" fill="#5f5a55">5131.20</text>
<line x1="90" y1="394.0" x2="936" y2="394.0" stroke="#ddd7cf" stroke-width="1"/>
<text x="80" y="399.0" text-anchor="end" font-family="Georgia, serif" font-size="12" fill="#5f5a55">0.00</text>
<polyline fill="none" stroke="#345995" stroke-width="3" points="90.0,324.9 301.5,263.3 513.0,194.2 724.5,125.1 936.0,56.0"/>
<circle cx="90.0" cy="324.9" r="5" fill="#345995"/>
<text x="90.0" y="314.9" text-anchor="middle" font-family="Georgia, serif" font-size="12" fill="#171717">5244.00</text>
<text x="90.0" y="418" text-anchor="middle" font-family="Georgia, serif" font-size="12" fill="#5f5a55">01</text>
<circle cx="301.5" cy="263.3" r="5" fill="#345995"/>
<text x="301.5" y="253.3" text-anchor="middle" font-family="Georgia, serif" font-size="12" fill="#171717">9924.00</text>
<text x="301.5" y="418" text-anchor="middle" font-family="Georgia, serif" font-size="12" fill="#5f5a55">02</text>
<circle cx="513.0" cy="194.2" r="5" fill="#345995"/>
<text x="513.0" y="184.2" text-anchor="middle" font-family="Georgia, serif" font-size="12" fill="#171717">15168.00</text>
<text x="513.0" y="418" text-anchor="middle" font-family="Georgia, serif" font-size="12" fill="#5f5a55">03</text>
<circle cx="724.5" cy="125.1" r="5" fill="#345995"/>
<text x="724.5" y="115.1" text-anchor="middle" font-family="Georgia, serif" font-size="12" fill="#171717">20412.00</text>
<text x="724.5" y="418" text-anchor="middle" font-family="Georgia, serif" font-size="12" fill="#5f5a55">04</text>
<circle cx="936.0" cy="56.0" r="5" fill="#345995"/>
<text x="936.0" y="46.0" text-anchor="middle" font-family="Georgia, serif" font-size="12" fill="#171717">25656.00</text>
<text x="936.0" y="418" text-anchor="middle" font-family="Georgia, serif" font-size="12" fill="#5f5a55">05</text>
</svg>
