<svg xmlns="http://www.w3.org/2000/svg" width="960" height="480" viewBox="0 0 960 480">
<rect width="100%" height="100%" fill="#f8f7f4"/>
<text x="480" y="28" text-anchor="middle" font-family="Georgia, serif" font-size="22" fill="#171717">Equal-Time Policy Loss</text>
<text x="20" y="225" transform="rotate(-90 20 225)" text-anchor="middle" font-family="Georgia, serif" font-size="14" fill="#5f5a55">Final policy loss</text>
<line x1="90" y1="56" x2="90" y2="394" stroke="#6c6761" stroke-width="1.5"/>
<line x1="90" y1="394" x2="936" y2="394" stroke="#6c6761" stroke-width="1.5"/>
<line x1="90" y1="56.0" x2="936" y2="56.0" stroke="#ddd7cf" stroke-width="1"/>
<text x="80" y="61.0" text-anchor="end" font-family="Georgia, serif" font-size="12" fill="#5f5a55">3.50</text>
<line x1="90" y1="123.6" x2="936" y2="123.6" stroke="#ddd7cf" stroke-width="1"/>
<text x="80" y="128.6" text-anchor="end" font-family="Georgia, serif" font-size="12" fill="#5f5a55">2.80</text>
<line x1="90" y1="191.2" x2="936" y2="191.2" stroke="#ddd7cf" stroke-width="1"/>
<text x="80" y="196.2" text-anchor="end" font-family="Georgia, serif" font-size="12" fill="#5f5a55">2.10</text>
<line x1="90" y1="258.8" x2="936" y2="258.8" stroke="#ddd7cf" stroke-width="1"/>
<text x="80" y="263.8" text-anchor="end" font-family="Georgia, serif" font-size="12" fill="#5f5a55">1.40</text>
<line x1="90" y1="326.4" x2="936" y2="326.4" stroke="#ddd7cf" stroke-width="1"/>
<text x="80" y="331.4" text-anchor="end" font-family="Georgia, serif" font-size="12" fill="#5f5a55">0.70</text>
<line x1="90" y1="394.0" x2="936" y2="394.0" stroke="#ddd7cf" stroke-width="1"/>
<text x="80" y="399.0" text-anchor="end" font-family="Georgia, serif" font-size="12" fill="#5f5a55">0.00</text>
<rect x="207.8" y="75.5" width="253.8" height="318.5" rx="8" fill="#8e6c8a"/>
<text x="334.7" y="67.5" text-anchor="middle" font-family="Georgia, serif" font-size="12" fill="#171717">3.299</text>
<text x="334.7" y="418" text-anchor="middle" font-family="Georgia, serif" font-size="12" fill="#5f5a55">pre-lit</text>
<rect x="564.2" y="97.2" width="253.8" height="296.8" rx="8" fill="#1b5c75"/>
<text x="691.1" y="89.2" text-anchor="middle" font-family="Georgia, serif" font-size="12" fill="#171717">3.074</text>
<text x="691.1" y="418" text-anchor="middle" font-family="Georgia, serif" font-size="12" fill="#5f5a55">lit</text>
</svg>

