<svg xmlns="http://www.w3.org/2000/svg" width="960" height="480" viewBox="0 0 960 480">
<rect width="100%" height="100%" fill="#f8f7f4"/>
<text x="480" y="28" text-anchor="middle" font-family="Georgia, serif" font-size="22" fill="#171717">Equal-Time Value Loss</text>
<text x="20" y="225" transform="rotate(-90 20 225)" text-anchor="middle" font-family="Georgia, serif" font-size="14" fill="#5f5a55">Final value loss</text>
<line x1="90" y1="56" x2="90" y2="394" stroke="#6c6761" stroke-width="1.5"/>
<line x1="90" y1="394" x2="936" y2="394" stroke="#6c6761" stroke-width="1.5"/>
<line x1="90" y1="56.0" x2="936" y2="56.0" stroke="#ddd7cf" stroke-width="1"/>
<text x="80" y="61.0" text-anchor="end" font-family="Georgia, serif" font-size="12" fill="#5f5a55">0.000030</text>
<line x1="90" y1="123.6" x2="936" y2="123.6" stroke="#ddd7cf" stroke-width="1"/>
<text x="80" y="128.6" text-anchor="end" font-family="Georgia, serif" font-size="12" fill="#5f5a55">0.000024</text>
<line x1="90" y1="191.2" x2="936" y2="191.2" stroke="#ddd7cf" stroke-width="1"/>
<text x="80" y="196.2" text-anchor="end" font-family="Georgia, serif" font-size="12" fill="#5f5a55">0.000018</text>
<line x1="90" y1="258.8" x2="936" y2="258.8" stroke="#ddd7cf" stroke-width="1"/>
<text x="80" y="263.8" text-anchor="end" font-family="Georgia, serif" font-size="12" fill="#5f5a55">0.000012</text>
<line x1="90" y1="326.4" x2="936" y2="326.4" stroke="#ddd7cf" stroke-width="1"/>
<text x="80" y="331.4" text-anchor="end" font-family="Georgia, serif" font-size="12" fill="#5f5a55">0.000006</text>
<line x1="90" y1="394.0" x2="936" y2="394.0" stroke="#ddd7cf" stroke-width="1"/>
<text x="80" y="399.0" text-anchor="end" font-family="Georgia, serif" font-size="12" fill="#5f5a55">0.000000</text>
<rect x="207.8" y="123.1" width="253.8" height="270.9" rx="8" fill="#8e6c8a"/>
<text x="334.7" y="115.1" text-anchor="middle" font-family="Georgia, serif" font-size="12" fill="#171717">2.404e-05</text>
<text x="334.7" y="418" text-anchor="middle" font-family="Georgia, serif" font-size="12" fill="#5f5a55">pre-lit</text>
<rect x="564.2" y="179.5" width="253.8" height="214.5" rx="8" fill="#1b5c75"/>
<text x="691.1" y="171.5" text-anchor="middle" font-family="Georgia, serif" font-size="12" fill="#171717">1.903e-05</text>
<text x="691.1" y="418" text-anchor="middle" font-family="Georgia, serif" font-size="12" fill="#5f5a55">lit</text>
</svg>

