<svg xmlns="http://www.w3.org/2000/svg" width="960" height="480" viewBox="0 0 960 480">
<rect width="100%" height="100%" fill="#f8f7f4"/>
<text x="480.0" y="28" text-anchor="middle" font-family="Georgia, serif" font-size="22" fill="#171717">Post-Train Win Rate</text>
<text x="20" y="225.0" transform="rotate(-90 20 225.0)" text-anchor="middle" font-family="Georgia, serif" font-size="14" fill="#5f5a55">Win rate (%)</text>
<line x1="90" y1="56" x2="90" y2="394" stroke="#6c6761" stroke-width="1.5"/>
<line x1="90" y1="394" x2="936" y2="394" stroke="#6c6761" stroke-width="1.5"/>
<line x1="90" y1="56.0" x2="936" y2="56.0" stroke="#ddd7cf" stroke-width="1"/>
<text x="80" y="61.0" text-anchor="end" font-family="Georgia, serif" font-size="12" fill="#5f5a55">75</text>
<line x1="90" y1="123.6" x2="936" y2="123.6" stroke="#ddd7cf" stroke-width="1"/>
<text x="80" y="128.6" text-anchor="end" font-family="Georgia, serif" font-size="12" fill="#5f5a55">60</text>
<line x1="90" y1="191.2" x2="936" y2="191.2" stroke="#ddd7cf" stroke-width="1"/>
<text x="80" y="196.2" text-anchor="end" font-family="Georgia, serif" font-size="12" fill="#5f5a55">45</text>
<line x1="90" y1="258.8" x2="936" y2="258.8" stroke="#ddd7cf" stroke-width="1"/>
<text x="80" y="263.8" text-anchor="end" font-family="Georgia, serif" font-size="12" fill="#5f5a55">30</text>
<line x1="90" y1="326.4" x2="936" y2="326.4" stroke="#ddd7cf" stroke-width="1"/>
<text x="80" y="331.4" text-anchor="end" font-family="Georgia, serif" font-size="12" fill="#5f5a55">15</text>
<line x1="90" y1="394.0" x2="936" y2="394.0" stroke="#ddd7cf" stroke-width="1"/>
<text x="80" y="399.0" text-anchor="end" font-family="Georgia, serif" font-size="12" fill="#5f5a55">0</text>
<rect x="132.3" y="93.4" width="126.9" height="300.6" rx="8" fill="#1b5c75"/>
<text x="195.8" y="85.4" text-anchor="middle" font-family="Georgia, serif" font-size="12" fill="#171717">66.7</text>
<text x="195.8" y="418" text-anchor="middle" font-family="Georgia, serif" font-size="12" fill="#5f5a55">bootstrap</text>
<rect x="343.8" y="93.4" width="126.9" height="300.6" rx="8" fill="#1b5c75"/>
<text x="407.2" y="85.4" text-anchor="middle" font-family="Georgia, serif" font-size="12" fill="#171717">66.7</text>
<text x="407.2" y="418" text-anchor="middle" font-family="Georgia, serif" font-size="12" fill="#5f5a55">cycle_001</text>
<rect x="555.3" y="56.0" width="126.9" height="338.0" rx="8" fill="#1b5c75"/>
<text x="618.8" y="48.0" text-anchor="middle" font-family="Georgia, serif" font-size="12" fill="#171717">75.0</text>
<text x="618.8" y="418" text-anchor="middle" font-family="Georgia, serif" font-size="12" fill="#5f5a55">cycle_002</text>
<rect x="766.8" y="74.9" width="126.9" height="319.1" rx="8" fill="#1b5c75"/>
<text x="830.2" y="66.9" text-anchor="middle" font-family="Georgia, serif" font-size="12" fill="#171717">70.8</text>
<text x="830.2" y="418" text-anchor="middle" font-family="Georgia, serif" font-size="12" fill="#5f5a55">active_20_cycle_020</text>
</svg>
