<svg xmlns="http://www.w3.org/2000/svg" width="960" height="480" viewBox="0 0 960 480">
<rect width="100%" height="100%" fill="#f8f7f4"/>
<text x="480.0" y="28" text-anchor="middle" font-family="Georgia, serif" font-size="22" fill="#171717">Promotion Match</text>
<text x="20" y="225.0" transform="rotate(-90 20 225.0)" text-anchor="middle" font-family="Georgia, serif" font-size="14" fill="#5f5a55">Points</text>
<line x1="90" y1="56" x2="90" y2="394" stroke="#6c6761" stroke-width="1.5"/>
<line x1="90" y1="394" x2="936" y2="394" stroke="#6c6761" stroke-width="1.5"/>
<line x1="90" y1="56.0" x2="936" y2="56.0" stroke="#ddd7cf" stroke-width="1"/>
<text x="80" y="61.0" text-anchor="end" font-family="Georgia, serif" font-size="12" fill="#5f5a55">4</text>
<line x1="90" y1="123.6" x2="936" y2="123.6" stroke="#ddd7cf" stroke-width="1"/>
<text x="80" y="128.6" text-anchor="end" font-family="Georgia, serif" font-size="12" fill="#5f5a55">4</text>
<line x1="90" y1="191.2" x2="936" y2="191.2" stroke="#ddd7cf" stroke-width="1"/>
<text x="80" y="196.2" text-anchor="end" font-family="Georgia, serif" font-size="12" fill="#5f5a55">3</text>
<line x1="90" y1="258.8" x2="936" y2="258.8" stroke="#ddd7cf" stroke-width="1"/>
<text x="80" y="263.8" text-anchor="end" font-family="Georgia, serif" font-size="12" fill="#5f5a55">2</text>
<line x1="90" y1="326.4" x2="936" y2="326.4" stroke="#ddd7cf" stroke-width="1"/>
<text x="80" y="331.4" text-anchor="end" font-family="Georgia, serif" font-size="12" fill="#5f5a55">1</text>
<line x1="90" y1="394.0" x2="936" y2="394.0" stroke="#ddd7cf" stroke-width="1"/>
<text x="80" y="399.0" text-anchor="end" font-family="Georgia, serif" font-size="12" fill="#5f5a55">0</text>
<rect x="174.6" y="56.0" width="253.8" height="338.0" rx="8" fill="#1b5c75"/>
<text x="301.5" y="48.0" text-anchor="middle" font-family="Georgia, serif" font-size="12" fill="#171717">4.5</text>
<text x="301.5" y="418" text-anchor="middle" font-family="Georgia, serif" font-size="12" fill="#5f5a55">candidate</text>
<rect x="597.6" y="281.3" width="253.8" height="112.7" rx="8" fill="#1b5c75"/>
<text x="724.5" y="273.3" text-anchor="middle" font-family="Georgia, serif" font-size="12" fill="#171717">1.5</text>
<text x="724.5" y="418" text-anchor="middle" font-family="Georgia, serif" font-size="12" fill="#5f5a55">incumbent</text>
</svg>
